<svg id="Layer_1" data-name="Layer 1" 
    xmlns="http://www.w3.org/2000/svg" 
    xmlns:xlink="http://www.w3.org/1999/xlink" viewBox="0 0 1280 720">
    <defs>
        <style>.cls-1,.cls-5,.cls-7{fill:none;}.cls-2{clip-path:url(#clip-path);}.cls-3,.cls-9{fill:#fff;}.cls-10,.cls-11,.cls-3,.cls-4,.cls-6,.cls-8{fill-rule:evenodd;}.cls-4{fill:#f9c907;}.cls-5,.cls-7{stroke:#fff;}.cls-5{stroke-miterlimit:10;stroke-width:1.33px;}.cls-6{fill-opacity:0;}.cls-7{stroke-linejoin:round;stroke-width:4px;stroke-dasharray:16 12;}.cls-8{fill:#f45844;}.cls-10{fill:#aad356;}.cls-11{fill:#1799a7;}.cls-12{font-size:48px;fill:#383232;font-family:Helvetica;}.cls-13{letter-spacing:-0.07em;}</style>
        <clipPath id="clip-path">
            <rect class="cls-1" width="1280" height="720"/>
        </clipPath>
    </defs>
    <title>finalfirstpage</title>
    <g class="cls-2">
        <path class="cls-3" d="M0,0H1280V720H0Z"/>
        <g id="p1.1">
            <path class="cls-4" d="M11.82,33.72h0A22.61,22.61,0,0,1,34.44,11.11H609.07a22.6,22.6,0,0,1,22.61,22.61V342a22.61,22.61,0,0,1-22.61,22.62H34.44A22.62,22.62,0,0,1,11.82,342Z"/>
            <path class="cls-5" d="M11.82,33.72h0A22.61,22.61,0,0,1,34.44,11.11H609.07a22.6,22.6,0,0,1,22.61,22.61V342a22.61,22.61,0,0,1-22.61,22.62H34.44A22.62,22.62,0,0,1,11.82,342Z"/>
        </g>
        <g id="p1.1-2" data-name="p1.1">
            <path class="cls-4" d="M11.82,31.72h0A22.61,22.61,0,0,1,34.44,9.11H609.07a22.6,22.6,0,0,1,22.61,22.61V340a22.61,22.61,0,0,1-22.61,22.62H34.44A22.62,22.62,0,0,1,11.82,340Z"/>
            <path class="cls-5" d="M11.82,31.72h0A22.61,22.61,0,0,1,34.44,9.11H609.07a22.6,22.6,0,0,1,22.61,22.61V340a22.61,22.61,0,0,1-22.61,22.62H34.44A22.62,22.62,0,0,1,11.82,340Z"/>
        </g>
        <path class="cls-6" d="M215.12,241.67H428.38v61.4H215.12Z"/>
        <path d="M233.68,260.52c-.68,0-1.65.06-2.9.17q.16,3.58.17,9.6,1.37.09,2.34.09,8,0,7.94-4.86T233.68,260.52Zm2,23.94a7,7,0,0,0,4.64-1.56,5.41,5.41,0,0,0,1.88-4.39,5.21,5.21,0,0,0-2.11-4.42,8.13,8.13,0,0,0-5-1.58,27.65,27.65,0,0,0-4.21.22q0,3.4-.54,10.18a6.66,6.66,0,0,0,2.36,1.1A10.83,10.83,0,0,0,235.73,284.46Zm-8.67-.09a102,102,0,0,0,.69-13.52,98.44,98.44,0,0,0-.55-12.42,47.36,47.36,0,0,1,7.28-.5,14,14,0,0,1,7.08,1.7q3,1.71,2.95,5.8a5.85,5.85,0,0,1-3.72,5.76,7.29,7.29,0,0,1,4.74,7.3,7.89,7.89,0,0,1-2.63,6.31,9.46,9.46,0,0,1-6.4,2.25Q230.31,287.05,227.06,284.37Zm31.83-18a6.9,6.9,0,0,1,4.83,1.68,4.93,4.93,0,0,1,1.86,3.66,6.63,6.63,0,0,1-.59,3.06,4.68,4.68,0,0,1-1.57,1.75,7.43,7.43,0,0,1-2.75,1,48.15,48.15,0,0,1-8.18.51,8.85,8.85,0,0,0,1.86,4.86,5.57,5.57,0,0,0,4.5,1.78,4.42,4.42,0,0,0,4.21-2.22c1.14.46,1.71,1.09,1.71,1.9s-.65,1.44-1.94,2a11.68,11.68,0,0,1-4.33.76,9,9,0,0,1-6.58-2.53q-2.53-2.53-2.54-7.64t2.82-7.79A9.35,9.35,0,0,1,258.89,266.37Zm-.17,2.34a6,6,0,0,0-4.37,1.75c-1.21,1.17-1.85,3-1.91,5.42,4.07,0,6.78-.29,8.11-.89a4.21,4.21,0,0,0,1.47-1.11,3,3,0,0,0-.52-4.15A4,4,0,0,0,258.72,268.71Zm24.49-2.34a1.41,1.41,0,0,1,1.57,1.62c0,1.94-.7,4.84-2.12,8.69a29.21,29.21,0,0,1-4.33,8.42,5.84,5.84,0,0,1-1.36,1.33,2.3,2.3,0,0,1-1.22.33,6.21,6.21,0,0,1-1.29-.13,77.88,77.88,0,0,0-3.25-11.11c-1.5-4.13-2.78-6.73-3.83-7.78a3.66,3.66,0,0,1,2.34-1.15c.71,0,1.28.49,1.7,1.48q.9,2,2.65,7.05t2.6,8.43a26.93,26.93,0,0,0,3.52-7.15,25.65,25.65,0,0,0,1.77-8.49,7.12,7.12,0,0,0-.13-1.32A4.16,4.16,0,0,1,283.21,266.37Zm14.46,0a6.85,6.85,0,0,1,4.82,1.68,4.93,4.93,0,0,1,1.86,3.66,6.5,6.5,0,0,1-.59,3.06,4.74,4.74,0,0,1-1.56,1.75,7.5,7.5,0,0,1-2.75,1,48.2,48.2,0,0,1-8.19.51,8.92,8.92,0,0,0,1.86,4.86,5.57,5.57,0,0,0,4.5,1.78,4.42,4.42,0,0,0,4.22-2.22c1.13.46,1.7,1.09,1.7,1.9s-.64,1.44-1.94,2a11.66,11.66,0,0,1-4.32.76,9,9,0,0,1-6.58-2.53q-2.55-2.53-2.55-7.64t2.83-7.79A9.32,9.32,0,0,1,297.67,266.37Zm-.18,2.34a6.06,6.06,0,0,0-4.37,1.75c-1.21,1.17-1.84,3-1.91,5.42,4.08,0,6.78-.29,8.11-.89a4,4,0,0,0,1.47-1.11,2.87,2.87,0,0,0,.63-1.94,2.9,2.9,0,0,0-1.14-2.21A4,4,0,0,0,297.49,268.71ZM309,284.34l.1-7.57q0-6.09-.3-10a7.36,7.36,0,0,1,1.45-.14c1.22,0,1.83.55,1.83,1.63,0,.06,0,.25,0,.58s0,.63,0,.92a9.2,9.2,0,0,1,2.29-2.38,4.61,4.61,0,0,1,2.62-1c1.54,0,2.31.55,2.31,1.67a3.31,3.31,0,0,1-.86,1.92,3.11,3.11,0,0,0-2.09-.81,3.8,3.8,0,0,0-2.34.94,7.46,7.46,0,0,0-2,2.46c0,1-.05,3.08-.05,6.32a27.33,27.33,0,0,0,.81,7.54,4.36,4.36,0,0,1-1.81.35,1.8,1.8,0,0,1-1.49-.55A3.19,3.19,0,0,1,309,284.34Zm27.39-11-.08,5.77a24.55,24.55,0,0,0,.82,7.32,3.67,3.67,0,0,1-1.66.35,1.74,1.74,0,0,1-1.34-.44,2.78,2.78,0,0,1-.5-1.44,8.57,8.57,0,0,1-5.47,2.17q-6.57,0-6.56-6a4.35,4.35,0,0,1,1-3.19,6.46,6.46,0,0,1,2.83-1.55,42.71,42.71,0,0,1,8.09-1.14c0-2.41-.29-4.08-.89-5s-1.86-1.39-3.79-1.39a4.78,4.78,0,0,0-2.47.76,4.65,4.65,0,0,0-1.92,2.22c-1.32-.25-2-.82-2-1.7,0-1.11.68-2,2-2.66a12,12,0,0,1,5.25-1,7.16,7.16,0,0,1,4.91,1.51C335.87,268.89,336.43,270.71,336.43,273.32Zm-2.89,4c-.83.08-1.46.15-1.87.21l-1.66.21a11.75,11.75,0,0,0-1.56.26l-1.25.35a3.25,3.25,0,0,0-1.11.47q-.36.24-.75.54a2,2,0,0,0-.72,1.66,3.47,3.47,0,0,0,1.11,2.84,4.23,4.23,0,0,0,2.81.92,6.81,6.81,0,0,0,4.91-1.92c0-.39-.05-1.12-.05-2.17S333.45,278.53,333.54,277.34Zm12,10.87a7.63,7.63,0,0,0-1.58,4q0,2.76,5.16,2.76a11,11,0,0,0,5.7-1.2,3.34,3.34,0,0,0,2-2.77,2.3,2.3,0,0,0-.81-2.09,4.91,4.91,0,0,0-2.52-.5H349.1A19.82,19.82,0,0,1,345.57,288.21Zm4.06-9a5.18,5.18,0,0,0,3.78-1.19,4.94,4.94,0,0,0,1.19-3.61,6,6,0,0,0-1.39-4,4.68,4.68,0,0,0-3.77-1.62q-5.07,0-5.07,4.86a5.94,5.94,0,0,0,1.34,4A4.87,4.87,0,0,0,349.63,279.21Zm-.14,2.39a10,10,0,0,1-2.34-.26A9.18,9.18,0,0,0,346,283.1a3.65,3.65,0,0,0-.49,1.49c0,.7.94,1.06,2.81,1.06h4.91q6.31,0,6.31,4.56a6,6,0,0,1-3.09,5.19,13.15,13.15,0,0,1-7.25,2q-4.15,0-6.19-1.45a4.45,4.45,0,0,1-2-3.77c0-1.53.93-3,2.81-4.5a2.56,2.56,0,0,1-1.28-2q0-1.62,2.94-4.9-4.1-1.83-4.1-6.78a7.21,7.21,0,0,1,2.3-5.44,7.88,7.88,0,0,1,5.65-2.2,8.6,8.6,0,0,1,5.49,1.67c1.2-1.6,2.48-2.39,3.84-2.39a2.71,2.71,0,0,1,1.47.39,1.17,1.17,0,0,1,.63,1,4.4,4.4,0,0,1-.35,1.54,7.6,7.6,0,0,0-1.5-.09,6,6,0,0,0-2.73.86A7.65,7.65,0,0,1,357.6,274a6.92,6.92,0,0,1-2.39,5.54A8.47,8.47,0,0,1,349.49,281.6ZM373,266.37a6.9,6.9,0,0,1,4.83,1.68,4.93,4.93,0,0,1,1.86,3.66,6.49,6.49,0,0,1-.6,3.06,4.58,4.58,0,0,1-1.56,1.75,7.43,7.43,0,0,1-2.75,1,48.2,48.2,0,0,1-8.19.51,8.92,8.92,0,0,0,1.86,4.86,5.57,5.57,0,0,0,4.5,1.78,4.42,4.42,0,0,0,4.22-2.22c1.14.46,1.71,1.09,1.71,1.9s-.65,1.44-1.94,2a11.71,11.71,0,0,1-4.33.76,9,9,0,0,1-6.58-2.53q-2.55-2.53-2.55-7.64c0-3.39,1-6,2.83-7.79A9.35,9.35,0,0,1,373,266.37Zm-.17,2.34a6.07,6.07,0,0,0-4.38,1.75c-1.21,1.17-1.84,3-1.9,5.42,4.07,0,6.77-.29,8.11-.89a4.21,4.21,0,0,0,1.47-1.11,3,3,0,0,0-.52-4.15A4,4,0,0,0,372.87,268.71Zm22,2.83a3.82,3.82,0,0,0-1.92-2,6.21,6.21,0,0,0-3-.76,4.24,4.24,0,0,0-2.59.79,2.54,2.54,0,0,0-1.06,2.16,2.34,2.34,0,0,0,1.12,2.09,9.2,9.2,0,0,0,2.75,1.11c1.09.25,2.17.55,3.25.88a5.76,5.76,0,0,1,2.75,1.76,4.78,4.78,0,0,1,1.14,3.32,5.35,5.35,0,0,1-2.18,4.61,8.26,8.26,0,0,1-5,1.57,11.12,11.12,0,0,1-4.81-1c-1.36-.66-2-1.47-2-2.44,0-.82.64-1.42,1.93-1.8a3.52,3.52,0,0,0,2,2.09,8,8,0,0,0,3.39.72,5,5,0,0,0,3-.79,2.66,2.66,0,0,0,1.14-2.3,2.37,2.37,0,0,0-1.14-2.19,9,9,0,0,0-2.75-1c-1.07-.24-2.15-.53-3.23-.85a5.36,5.36,0,0,1-3.89-5.59,4.72,4.72,0,0,1,2.2-4,7.75,7.75,0,0,1,4.58-1.57,10,10,0,0,1,4.31.9c1.28.6,1.92,1.38,1.92,2.35S396.15,271.23,394.87,271.54Z"/>
        <path class="cls-6" d="M246.38,176h0a33.89,33.89,0,0,1,33.89-33.9H370a33.9,33.9,0,0,1,33.9,33.9v19.76a33.9,33.9,0,0,1-33.9,33.9H280.27a33.89,33.89,0,0,1-33.89-33.9Z"/>
        <path class="cls-7" d="M246.38,176h0a33.89,33.89,0,0,1,33.89-33.9H370a33.9,33.9,0,0,1,33.9,33.9v19.76a33.9,33.9,0,0,1-33.9,33.9H280.27a33.89,33.89,0,0,1-33.89-33.9Z"/>
        <path d="M366.45,195.46a8.64,8.64,0,0,1-1.86,5.81,6.84,6.84,0,0,1-10,0,8.74,8.74,0,0,1-1.85-5.84,8.56,8.56,0,0,1,1.85-5.8,6.88,6.88,0,0,1,10,0A8.62,8.62,0,0,1,366.45,195.46ZM359.53,201a3.13,3.13,0,0,0,2.73-1.49,6.47,6.47,0,0,0,1-3.76,8.6,8.6,0,0,0-1-4.11,2.92,2.92,0,0,0-2.64-1.83,3.3,3.3,0,0,0-2.75,1.45,6,6,0,0,0-1.08,3.72,8.78,8.78,0,0,0,1,4.16A3,3,0,0,0,359.53,201Zm-19.53.72,14.2-22.41q3.66-5.81,5.77-9.61a2.9,2.9,0,0,1,1.48.49,1.2,1.2,0,0,1,.67,1,2,2,0,0,1-.33,1.08l-14.21,22.47q-3.42,5.37-5.75,9.59-2.07-.44-2.22-1.44A2,2,0,0,1,340,201.74ZM348.83,179a8.63,8.63,0,0,1-1.85,5.8,6.84,6.84,0,0,1-10,0,10.08,10.08,0,0,1,0-11.64,6.85,6.85,0,0,1,10,0A8.65,8.65,0,0,1,348.83,179Zm-6.93,5.55a3.14,3.14,0,0,0,2.74-1.48,6.52,6.52,0,0,0,1-3.77,8.46,8.46,0,0,0-1-4.09,2.9,2.9,0,0,0-2.64-1.83,3.31,3.31,0,0,0-2.75,1.44,6,6,0,0,0-1.07,3.71,8.75,8.75,0,0,0,1,4.16A3,3,0,0,0,341.9,184.55Z"/>
        <path class="cls-8" d="M643.51,23.09h0A16.15,16.15,0,0,1,659.66,6.94H1252a16.15,16.15,0,0,1,16.16,16.15V344.28A16.15,16.15,0,0,1,1252,360.43H659.66a16.15,16.15,0,0,1-16.15-16.15Z"/>
        <path class="cls-5" d="M643.51,23.09h0A16.15,16.15,0,0,1,659.66,6.94H1252a16.15,16.15,0,0,1,16.16,16.15V344.28A16.15,16.15,0,0,1,1252,360.43H659.66a16.15,16.15,0,0,1-16.15-16.15Z"/>
        <path class="cls-6" d="M886.57,241.67h150.77v61.39H886.57Z"/>
        <path class="cls-9" d="M912.68,263.9a5.54,5.54,0,0,0-2.61-2.33,8.8,8.8,0,0,0-4-.92,5.49,5.49,0,0,0-3.56,1.2,3.92,3.92,0,0,0-1.47,3.22,4.39,4.39,0,0,0,1.08,3.16,5.93,5.93,0,0,0,2.72,1.57c1.08.31,2.26.67,3.55,1.1s2.45.87,3.53,1.33a5.81,5.81,0,0,1,2.7,2.34,7.08,7.08,0,0,1,1.09,4,8.69,8.69,0,0,1-.86,4,6.47,6.47,0,0,1-2.29,2.63,11.61,11.61,0,0,1-6.42,1.82,14.59,14.59,0,0,1-6.14-1.17c-1.69-.78-2.54-1.72-2.54-2.83a2,2,0,0,1,1.07-1.67c.23-.13.6-.33,1.11-.59a6,6,0,0,0,2.92,2.58,10.21,10.21,0,0,0,4.39,1,6.4,6.4,0,0,0,4-1.3,4.18,4.18,0,0,0,1.72-3.52,4,4,0,0,0-1.51-3.39,10.41,10.41,0,0,0-3.68-1.76c-1.43-.41-2.87-.85-4.31-1.33a8.47,8.47,0,0,1-3.67-2.45A6.79,6.79,0,0,1,898,266a7.27,7.27,0,0,1,2.58-6,10.14,10.14,0,0,1,6.59-2.09,13.92,13.92,0,0,1,5.42,1c1.67.68,2.5,1.61,2.5,2.8S914.3,263.62,912.68,263.9Zm20.82,20.69.25-11a4.86,4.86,0,0,0-1.18-3.58,4,4,0,0,0-3-1.2,8.9,8.9,0,0,0-5.71,2.34c0,3.88.07,6.94.07,9.2s.09,4.36.27,6.29a8.43,8.43,0,0,1-1.45.12c-1.28,0-1.93-.54-1.93-1.61,0-.11,0-1.16.11-3.14s.11-3.95.11-5.91c0-4.66-.27-7.68-.81-9a4.08,4.08,0,0,1,1.53-.35c1.31,0,2,.72,2,2.14a13,13,0,0,1,7.5-2.43A5.52,5.52,0,0,1,935,267.8c1.08.95,1.61,2.48,1.61,4.58l-.12,7.6a23.85,23.85,0,0,0,.72,6.43,4.87,4.87,0,0,1-1.82.35,2,2,0,0,1-1.45-.49A2.38,2.38,0,0,1,933.5,284.59Zm23-11.27-.08,5.77a24.62,24.62,0,0,0,.81,7.32,3.67,3.67,0,0,1-1.66.35,1.74,1.74,0,0,1-1.34-.44,2.78,2.78,0,0,1-.5-1.44,8.55,8.55,0,0,1-5.47,2.17q-6.56,0-6.56-6a4.39,4.39,0,0,1,1-3.19,6.46,6.46,0,0,1,2.83-1.55,43,43,0,0,1,8.1-1.14c0-2.41-.3-4.09-.89-5s-1.86-1.39-3.8-1.39a4.81,4.81,0,0,0-2.47.76,4.7,4.7,0,0,0-1.92,2.22c-1.31-.25-2-.82-2-1.7,0-1.11.68-2,2-2.66a11.75,11.75,0,0,1,5.25-1,7.13,7.13,0,0,1,4.9,1.51Q956.53,269.4,956.53,273.32Zm-2.9,4c-.83.08-1.45.15-1.87.21l-1.66.21a12.05,12.05,0,0,0-1.56.26l-1.25.35a3.25,3.25,0,0,0-1.11.47q-.36.24-.75.54a2,2,0,0,0-.72,1.66,3.47,3.47,0,0,0,1.11,2.84,4.23,4.23,0,0,0,2.81.92,6.81,6.81,0,0,0,4.91-1.92c0-.39,0-1.12,0-2.17S953.54,278.53,953.63,277.34Zm17.11,7.32a6.84,6.84,0,0,0,2.59-.54,3.55,3.55,0,0,0,1.88-1.68c1.13.46,1.7,1,1.7,1.72,0,.94-.64,1.66-1.94,2.16a12.25,12.25,0,0,1-4.37.73,9,9,0,0,1-6.49-2.53c-1.72-1.7-2.59-4.22-2.59-7.58a12.83,12.83,0,0,1,.84-4.79,8.85,8.85,0,0,1,2.27-3.35,9.49,9.49,0,0,1,6.27-2.43,9.07,9.07,0,0,1,4.14,1,3,3,0,0,1,2,2.77c0,1-.69,1.64-2,1.84a3.89,3.89,0,0,0-1.83-2.36,5.51,5.51,0,0,0-2.91-.84,4.94,4.94,0,0,0-4,2.11,9.51,9.51,0,0,0-1.64,5.95,8.75,8.75,0,0,0,1.72,5.84A5.63,5.63,0,0,0,970.74,284.66Zm10.74-.12.09-12.2V267.4a122.14,122.14,0,0,0-.34-12.33,8.4,8.4,0,0,1,1.48-.13c1.32,0,2,.54,2,1.61,0,.12,0,.77,0,2q-.25,6.57-.25,10.71a9.35,9.35,0,0,1,6.53-2.86,5.58,5.58,0,0,1,4.22,1.51,5.48,5.48,0,0,1,1.45,3.94,6.52,6.52,0,0,1-1.61,4.31,6.44,6.44,0,0,1-4.45,2.19,32.24,32.24,0,0,0,3.39,4.92,3.35,3.35,0,0,0,2.45,1.17,2.88,2.88,0,0,0,1.11-.17,3.21,3.21,0,0,1,.37,1.39c0,.41-.29.75-.89,1a4.08,4.08,0,0,1-1.7.4,4.16,4.16,0,0,1-3.08-1.53,19.81,19.81,0,0,1-2.39-3.17c-.64-1.09-1.18-2-1.61-2.7s-.71-1.21-.86-1.47c-.74-.08-1.11-.38-1.11-.89a2.93,2.93,0,0,1,.22-1,10.68,10.68,0,0,0,2.17.3,4.86,4.86,0,0,0,3.63-1.3,4.07,4.07,0,0,0,1.28-2.89,3.85,3.85,0,0,0-.87-2.59,3,3,0,0,0-2.38-1,6.59,6.59,0,0,0-3.11.87,10,10,0,0,0-2.76,2.21V278a31.79,31.79,0,0,0,.81,8.39,4.35,4.35,0,0,1-1.8.35,1.9,1.9,0,0,1-1.47-.5A2.63,2.63,0,0,1,981.48,284.54Zm30.75-13a3.79,3.79,0,0,0-1.92-2,6.2,6.2,0,0,0-2.95-.76,4.27,4.27,0,0,0-2.6.79,2.55,2.55,0,0,0-1.06,2.16,2.35,2.35,0,0,0,1.13,2.09,9.09,9.09,0,0,0,2.75,1.11c1.08.25,2.16.54,3.25.88a5.81,5.81,0,0,1,2.75,1.76,4.78,4.78,0,0,1,1.14,3.32,5.34,5.34,0,0,1-2.19,4.61,8.26,8.26,0,0,1-5,1.57,11.16,11.16,0,0,1-4.81-1c-1.36-.66-2-1.47-2-2.44s.64-1.42,1.92-1.8a3.52,3.52,0,0,0,2,2.09,8.06,8.06,0,0,0,3.39.72,5,5,0,0,0,3-.79,2.67,2.67,0,0,0,1.14-2.3,2.37,2.37,0,0,0-1.14-2.19,8.62,8.62,0,0,0-2.75-1c-1.07-.24-2.15-.53-3.23-.85a5.36,5.36,0,0,1-3.89-5.59,4.72,4.72,0,0,1,2.2-4,7.78,7.78,0,0,1,4.58-1.57,10,10,0,0,1,4.31.9c1.28.6,1.92,1.38,1.92,2.35S1013.51,271.23,1012.23,271.54Z"/>
        <path class="cls-6" d="M880.46,173.81h0a33.9,33.9,0,0,1,33.9-33.9h83a33.9,33.9,0,0,1,33.89,33.9v19.76h0a33.89,33.89,0,0,1-33.89,33.89h-83a33.9,33.9,0,0,1-33.9-33.89Z"/>
        <path class="cls-7" d="M880.46,173.81h0a33.9,33.9,0,0,1,33.9-33.9h83a33.9,33.9,0,0,1,33.89,33.9v19.76h0a33.89,33.89,0,0,1-33.89,33.89h-83a33.9,33.9,0,0,1-33.9-33.89Z"/>
        <path d="M997.18,193.28a8.61,8.61,0,0,1-1.86,5.81,6.86,6.86,0,0,1-10,0,8.7,8.7,0,0,1-1.84-5.84,8.55,8.55,0,0,1,1.84-5.8,6.31,6.31,0,0,1,5-2.14,6.22,6.22,0,0,1,5,2.16A8.59,8.59,0,0,1,997.18,193.28Zm-6.92,5.56a3.13,3.13,0,0,0,2.73-1.48,6.52,6.52,0,0,0,1-3.77,8.72,8.72,0,0,0-1-4.11,2.93,2.93,0,0,0-2.64-1.82,3.27,3.27,0,0,0-2.75,1.45,6,6,0,0,0-1.08,3.72,8.85,8.85,0,0,0,1,4.15A3,3,0,0,0,990.26,198.84Zm-19.54.72,14.21-22.4c2.43-3.88,4.36-7.08,5.76-9.61a3,3,0,0,1,1.49.48,1.21,1.21,0,0,1,.67,1,2,2,0,0,1-.33,1.07L978.3,192.56c-2.27,3.59-4.19,6.78-5.75,9.6-1.37-.3-2.11-.77-2.22-1.44A2.07,2.07,0,0,1,970.72,199.56Zm8.83-22.73a8.62,8.62,0,0,1-1.84,5.8,6.88,6.88,0,0,1-10,0,10.14,10.14,0,0,1,0-11.65,6.86,6.86,0,0,1,10,0A8.61,8.61,0,0,1,979.55,176.83Zm-6.92,5.55a3.12,3.12,0,0,0,2.73-1.49,6.49,6.49,0,0,0,1-3.76,8.5,8.5,0,0,0-1-4.1,2.9,2.9,0,0,0-2.64-1.83,3.31,3.31,0,0,0-2.75,1.44,6,6,0,0,0-1.08,3.72,8.78,8.78,0,0,0,1,4.16A3,3,0,0,0,972.63,182.38Z"/>
        <path class="cls-10" d="M11.82,387.15h0a15.44,15.44,0,0,1,15.44-15.44h589a15.43,15.43,0,0,1,15.44,15.44v308.3a15.44,15.44,0,0,1-15.44,15.44h-589a15.44,15.44,0,0,1-15.44-15.44Z"/>
        <path class="cls-5" d="M11.82,387.15h0a15.44,15.44,0,0,1,15.44-15.44h589a15.43,15.43,0,0,1,15.44,15.44v308.3a15.44,15.44,0,0,1-15.44,15.44h-589a15.44,15.44,0,0,1-15.44-15.44Z"/>
        <path class="cls-6" d="M192.23,604.83h259v61.39h-259Z"/>
        <path d="M204.78,647.49l.08-7.56V629.18a27.45,27.45,0,0,0-.81-7.5,10.2,10.2,0,0,1,2.48-.34,3.56,3.56,0,0,1,3,2,58.45,58.45,0,0,1,3.37,7.1c1.14,2.78,2,5.13,2.66,7s1.55,4.7,2.72,8.35a114.85,114.85,0,0,1,3.56-11.44,73.65,73.65,0,0,1,5-11,3.47,3.47,0,0,1,3.11-2,7,7,0,0,1,2.39.34q-.76,2.57-.76,9.51v9.94a31.81,31.81,0,0,0,.81,8.44,5,5,0,0,1-2,.34,2,2,0,0,1-1.66-.54,2.26,2.26,0,0,1-.42-1.38c0-.54,0-1.71,0-3.5q0-8,0-18.5-3.93,7.89-8.58,23.72a4,4,0,0,1-1.14.16,2.05,2.05,0,0,1-2.14-1.11q-1-2.29-3.86-10.25a121.65,121.65,0,0,0-5.07-12.44v15.06a31.72,31.72,0,0,0,.82,8.44,4.35,4.35,0,0,1-1.8.34,1.72,1.72,0,0,1-1.44-.54A3.22,3.22,0,0,1,204.78,647.49Zm47.17-11-.08,5.76a24.74,24.74,0,0,0,.81,7.33,3.62,3.62,0,0,1-1.65.34,1.75,1.75,0,0,1-1.35-.43,3,3,0,0,1-.5-1.44,8.55,8.55,0,0,1-5.47,2.17q-6.56,0-6.56-6a4.32,4.32,0,0,1,1-3.18,6.37,6.37,0,0,1,2.83-1.55,42.71,42.71,0,0,1,8.09-1.14c0-2.42-.3-4.09-.89-5s-1.86-1.39-3.8-1.39a4.86,4.86,0,0,0-2.47.77A4.76,4.76,0,0,0,240,634.9c-1.31-.25-2-.82-2-1.71,0-1.1.69-2,2.05-2.65a11.74,11.74,0,0,1,5.25-1,7.16,7.16,0,0,1,4.91,1.52Q251.95,632.55,252,636.48Zm-2.89,4c-.83.08-1.46.16-1.88.22l-1.65.2a13.9,13.9,0,0,0-1.57.27l-1.25.34a3.39,3.39,0,0,0-1.1.47l-.75.55a2,2,0,0,0-.72,1.65,3.5,3.5,0,0,0,1.11,2.85,4.26,4.26,0,0,0,2.81.92A6.79,6.79,0,0,0,249,646c0-.4,0-1.12,0-2.17S249,641.69,249.06,640.49Zm9,7,.08-7.56c0-4.06-.1-7.39-.29-10a7.43,7.43,0,0,1,1.45-.14c1.33,0,2,.54,2,1.62,0,.15,0,.72-.08,1.71q-.27,4.56-.27,9.15a26,26,0,0,0,.82,7.27,4.41,4.41,0,0,1-1.82.34,1.75,1.75,0,0,1-1.46-.54A3.14,3.14,0,0,1,258.05,647.49Zm3.63-22.2a2.17,2.17,0,0,1-.69,1.62,2.14,2.14,0,0,1-1.55.66,2.06,2.06,0,0,1-1.51-.64,2.37,2.37,0,0,1,0-3.27,2.23,2.23,0,0,1,1.56-.65,2.07,2.07,0,0,1,1.52.65A2.23,2.23,0,0,1,261.68,625.29Zm18.26,22.45.25-11a4.89,4.89,0,0,0-1.17-3.57,4,4,0,0,0-3-1.21,8.86,8.86,0,0,0-5.72,2.35q.07,5.81.07,9.2t.27,6.28a8.41,8.41,0,0,1-1.45.13c-1.28,0-1.92-.54-1.92-1.61,0-.12,0-1.16.1-3.14s.11-4,.11-5.91c0-4.67-.27-7.68-.81-9.05a4.06,4.06,0,0,1,1.53-.34c1.32,0,2,.71,2,2.14a13.15,13.15,0,0,1,7.5-2.44,5.48,5.48,0,0,1,3.81,1.44c1.08.95,1.61,2.47,1.61,4.58l-.12,7.59a23.93,23.93,0,0,0,.72,6.44,4.86,4.86,0,0,1-1.82.34,2,2,0,0,1-1.45-.48A2.4,2.4,0,0,1,279.94,647.74Zm38-3.67c1.25.51,1.88,1.24,1.88,2.2s-.82,1.85-2.44,2.69a13.06,13.06,0,0,1-6,1.25,12.31,12.31,0,0,1-9.64-4q-3.63-4-3.63-10.7t3.63-10.54q3.62-3.86,9.81-3.85a10.68,10.68,0,0,1,5.58,1.34,3.85,3.85,0,0,1,2.26,3.3c0,1.16-.81,1.88-2.43,2.14a6,6,0,0,0-2.55-3.14,7.13,7.13,0,0,0-3.72-1.05,8,8,0,0,0-6.55,3.19,12.88,12.88,0,0,0-2.53,8.26,15.13,15.13,0,0,0,2.55,8.8,8.24,8.24,0,0,0,7.17,3.69,8.35,8.35,0,0,0,3.81-.89A6.71,6.71,0,0,0,318,644.07Zm24.23-4.17a10.72,10.72,0,0,1-2.57,7.5,9.43,9.43,0,0,1-13.43,0,12.35,12.35,0,0,1,0-15,9.34,9.34,0,0,1,13.43,0A10.76,10.76,0,0,1,342.21,639.9Zm-9.29,7.92a5.69,5.69,0,0,0,4.63-2,8.34,8.34,0,0,0,1.67-5.5,10.2,10.2,0,0,0-1.7-6,5.38,5.38,0,0,0-4.66-2.46,5.58,5.58,0,0,0-4.58,2,8.54,8.54,0,0,0-1.64,5.52,10.38,10.38,0,0,0,1.66,5.94A5.32,5.32,0,0,0,332.92,647.82ZM363,631.44l-.17,9.69a34.14,34.14,0,0,0,.81,8.44,4.17,4.17,0,0,1-1.58.34c-1.3,0-1.95-.71-1.95-2.12a10.73,10.73,0,0,1-6.78,2.42q-6.06,0-6.06-6l.12-7.59a24.29,24.29,0,0,0-.72-6.44,4.76,4.76,0,0,1,1.8-.34,1.93,1.93,0,0,1,1.45.5,2.26,2.26,0,0,1,.5,1.69s-.08,3.68-.25,11a5.08,5.08,0,0,0,1.13,3.54,3.77,3.77,0,0,0,2.92,1.23,8.65,8.65,0,0,0,5.77-2.34q0-1.83-.05-6.82t-.3-8.7a7.46,7.46,0,0,1,1.46-.14C362.39,629.82,363,630.36,363,631.44Zm6,16,.1-7.56c0-4.06-.1-7.39-.3-10a7.36,7.36,0,0,1,1.45-.14q1.83,0,1.83,1.62c0,.07,0,.26,0,.58s0,.63,0,.92a9.32,9.32,0,0,1,2.29-2.37,4.56,4.56,0,0,1,2.62-1.05c1.54,0,2.31.56,2.31,1.67a3.31,3.31,0,0,1-.86,1.93,3.07,3.07,0,0,0-2.09-.82,3.86,3.86,0,0,0-2.34.94,7.6,7.6,0,0,0-2,2.47q0,1.45-.05,6.31a27.41,27.41,0,0,0,.81,7.55,4.36,4.36,0,0,1-1.81.34,1.79,1.79,0,0,1-1.48-.54A3.14,3.14,0,0,1,369,647.49Zm22.95-12.8a3.81,3.81,0,0,0-1.92-2,6.21,6.21,0,0,0-2.95-.77,4.22,4.22,0,0,0-2.59.8,2.53,2.53,0,0,0-1.07,2.16,2.36,2.36,0,0,0,1.13,2.09,9.2,9.2,0,0,0,2.75,1.11c1.08.25,2.16.54,3.25.87a5.9,5.9,0,0,1,2.75,1.77,4.76,4.76,0,0,1,1.14,3.31,5.32,5.32,0,0,1-2.19,4.61,8.25,8.25,0,0,1-5,1.58,11,11,0,0,1-4.81-1c-1.35-.65-2-1.47-2-2.44,0-.82.64-1.42,1.92-1.79a3.59,3.59,0,0,0,2,2.09,8,8,0,0,0,3.39.72,5,5,0,0,0,3-.8,2.64,2.64,0,0,0,1.14-2.29,2.37,2.37,0,0,0-1.14-2.19,9,9,0,0,0-2.75-1q-1.62-.36-3.24-.84a5.86,5.86,0,0,1-2.76-1.86,5.74,5.74,0,0,1-1.13-3.74,4.72,4.72,0,0,1,2.2-3.95,7.79,7.79,0,0,1,4.58-1.58,9.87,9.87,0,0,1,4.31.91c1.29.59,1.93,1.37,1.93,2.34S393.23,634.38,391.94,634.69Zm15.67-5.17a6.9,6.9,0,0,1,4.83,1.69,4.92,4.92,0,0,1,1.86,3.66,6.49,6.49,0,0,1-.6,3.06,4.65,4.65,0,0,1-1.56,1.75,7.45,7.45,0,0,1-2.75,1,47,47,0,0,1-8.19.52,8.92,8.92,0,0,0,1.86,4.86,5.57,5.57,0,0,0,4.5,1.78,4.42,4.42,0,0,0,4.22-2.22c1.14.46,1.7,1.09,1.7,1.89s-.64,1.44-1.93,2a11.71,11.71,0,0,1-4.33.77,9,9,0,0,1-6.58-2.53q-2.55-2.55-2.55-7.64c0-3.4,1-6,2.83-7.8A9.39,9.39,0,0,1,407.61,629.52Zm-.17,2.35a6.07,6.07,0,0,0-4.38,1.75q-1.81,1.74-1.9,5.42,6.1,0,8.11-.89a4.09,4.09,0,0,0,1.46-1.11,2.88,2.88,0,0,0,.63-1.94,2.93,2.93,0,0,0-1.14-2.22A4,4,0,0,0,407.44,631.87Z"/>
        <path class="cls-6" d="M246.38,531.42h0a33.89,33.89,0,0,1,33.89-33.89h83a33.9,33.9,0,0,1,33.89,33.89v19.76h0a33.89,33.89,0,0,1-33.89,33.89h-83a33.89,33.89,0,0,1-33.89-33.89Z"/>
        <path class="cls-7" d="M246.38,531.42h0a33.89,33.89,0,0,1,33.89-33.89h83a33.9,33.9,0,0,1,33.89,33.89v19.76h0a33.89,33.89,0,0,1-33.89,33.89h-83a33.89,33.89,0,0,1-33.89-33.89Z"/>
        <path d="M363.09,550.9a8.64,8.64,0,0,1-1.86,5.81,6.86,6.86,0,0,1-10,0,8.79,8.79,0,0,1-1.84-5.84,8.58,8.58,0,0,1,1.84-5.8,6.89,6.89,0,0,1,10,0A8.62,8.62,0,0,1,363.09,550.9Zm-6.92,5.56A3.14,3.14,0,0,0,358.9,555a6.49,6.49,0,0,0,1-3.76,8.72,8.72,0,0,0-1-4.11,2.92,2.92,0,0,0-2.64-1.83,3.3,3.3,0,0,0-2.75,1.45,6,6,0,0,0-1.08,3.72,8.89,8.89,0,0,0,1,4.16A3,3,0,0,0,356.17,556.46Zm-19.54.72,14.21-22.41q3.66-5.81,5.76-9.61a2.9,2.9,0,0,1,1.49.49,1.2,1.2,0,0,1,.67,1,2,2,0,0,1-.33,1.08l-14.22,22.47q-3.4,5.37-5.75,9.59-2.06-.43-2.22-1.44A2,2,0,0,1,336.63,557.18Zm8.83-22.74a8.62,8.62,0,0,1-1.84,5.8,6.86,6.86,0,0,1-10,0,10.12,10.12,0,0,1,0-11.64,6.87,6.87,0,0,1,10,0A8.65,8.65,0,0,1,345.46,534.44ZM338.54,540a3.14,3.14,0,0,0,2.74-1.48,6.59,6.59,0,0,0,1-3.77,8.46,8.46,0,0,0-1-4.09,2.9,2.9,0,0,0-2.64-1.83,3.31,3.31,0,0,0-2.75,1.44,6,6,0,0,0-1.08,3.71,8.75,8.75,0,0,0,1,4.16A3,3,0,0,0,338.54,540Z"/>
        <path class="cls-11" d="M643.51,384.45h0a17.08,17.08,0,0,1,17.07-17.08H1251.1a17.07,17.07,0,0,1,17.08,17.08V696a17.08,17.08,0,0,1-17.08,17.08H660.58A17.07,17.07,0,0,1,643.51,696Z"/>
        <path class="cls-5" d="M643.51,384.45h0a17.08,17.08,0,0,1,17.07-17.08H1251.1a17.07,17.07,0,0,1,17.08,17.08V696a17.08,17.08,0,0,1-17.08,17.08H660.58A17.07,17.07,0,0,1,643.51,696Z"/>
        <path class="cls-6" d="M883.29,604.83h145.1v61.39H883.29Z"/>
        <path class="cls-9" d="M920.57,635.63q0,6.66-3.56,10.63a13.51,13.51,0,0,1-19.09,0q-3.54-4-3.54-10.63T897.92,625A13.48,13.48,0,0,1,917,625Q920.57,629,920.57,635.63Zm-5.72-7.81a8,8,0,0,0-3-3,8.45,8.45,0,0,0-4.39-1.14,8.78,8.78,0,0,0-7,3,11.3,11.3,0,0,0-2.6,7.66,18.53,18.53,0,0,0,2.13,9,8.16,8.16,0,0,0,3,3.11,8.38,8.38,0,0,0,4.42,1.16,8.61,8.61,0,0,0,7.11-3.1,12.32,12.32,0,0,0,2.5-8A17.2,17.2,0,0,0,914.85,627.82Zm11.91,4.44-4,.29a3.88,3.88,0,0,1-.13-1.2,1.09,1.09,0,0,1,.64-1.11,5.88,5.88,0,0,1,2.17-.28h1.21c-.07-1.91-.15-3.5-.27-4.78a7.69,7.69,0,0,1,1.41-.13c1.36,0,2,.54,2,1.61,0,.41-.05,1.52-.17,3.33q5.43,0,7.17-.2a2.39,2.39,0,0,1,.18,1.08,1.12,1.12,0,0,1-.46,1,3.36,3.36,0,0,1-1.65.35c-.82,0-2.59,0-5.32,0-.05,3.08-.07,6.07-.07,9s.27,4.74.82,5.51a3.1,3.1,0,0,0,2.69,1.16,4.25,4.25,0,0,0,3.13-1.28,2.37,2.37,0,0,1,.78,1.62c0,.53-.37,1-1.11,1.36a6,6,0,0,1-2.69.55q-3.54,0-5-2.05t-1.47-6.09Q926.76,634.34,926.76,632.26Zm26.15,15.48.25-11.47a4.34,4.34,0,0,0-1.16-3.14,3.42,3.42,0,0,0-2.53-1.22,7.77,7.77,0,0,0-3.14.8,8.33,8.33,0,0,0-2.86,2q-.16,6.06-.17,8.84t.3,6.17a8.2,8.2,0,0,1-1.44.13c-1.28,0-1.92-.54-1.92-1.61,0-.23,0-1.49.08-3.77q.34-10.14.34-16.86a86.12,86.12,0,0,0-.34-9.4,8,8,0,0,1,1.54-.13c1.27,0,1.91.52,1.91,1.56s-.1,5.21-.3,12.52a10.3,10.3,0,0,1,6.88-2.66q5.74,0,5.75,6.66l-.17,7a23.49,23.49,0,0,0,.73,6.44,4.84,4.84,0,0,1-1.83.34,2,2,0,0,1-1.43-.48A2.35,2.35,0,0,1,952.91,647.74Zm17.75-18.22a6.85,6.85,0,0,1,4.82,1.69,4.9,4.9,0,0,1,1.86,3.66,6.63,6.63,0,0,1-.59,3.06,4.82,4.82,0,0,1-1.56,1.75,7.59,7.59,0,0,1-2.75,1,47.11,47.11,0,0,1-8.19.52,8.92,8.92,0,0,0,1.86,4.86,5.57,5.57,0,0,0,4.5,1.78,4.43,4.43,0,0,0,4.22-2.22c1.13.46,1.7,1.09,1.7,1.89s-.65,1.44-1.94,2a11.68,11.68,0,0,1-4.33.77,8.93,8.93,0,0,1-6.57-2.53q-2.55-2.55-2.55-7.64t2.83-7.8A9.36,9.36,0,0,1,970.66,629.52Zm-.18,2.35a6.06,6.06,0,0,0-4.37,1.75q-1.82,1.74-1.91,5.42,6.12,0,8.11-.89a4.21,4.21,0,0,0,1.47-1.11,2.88,2.88,0,0,0,.63-1.94,2.91,2.91,0,0,0-1.15-2.22A4,4,0,0,0,970.48,631.87ZM982,647.49l.1-7.56c0-4.06-.1-7.39-.3-10a7.36,7.36,0,0,1,1.45-.14q1.83,0,1.83,1.62c0,.07,0,.26,0,.58s0,.63,0,.92a9.45,9.45,0,0,1,2.28-2.37,4.61,4.61,0,0,1,2.63-1.05c1.54,0,2.31.56,2.31,1.67a3.31,3.31,0,0,1-.86,1.93,3.07,3.07,0,0,0-2.09-.82,3.91,3.91,0,0,0-2.35.94,7.87,7.87,0,0,0-2,2.47q0,1.45,0,6.31a27.41,27.41,0,0,0,.81,7.55,4.36,4.36,0,0,1-1.81.34,1.83,1.83,0,0,1-1.49-.54A3.22,3.22,0,0,1,982,647.49Zm23-12.8a3.81,3.81,0,0,0-1.92-2,6.21,6.21,0,0,0-2.95-.77,4.27,4.27,0,0,0-2.6.8,2.55,2.55,0,0,0-1.06,2.16,2.36,2.36,0,0,0,1.13,2.09,9.09,9.09,0,0,0,2.75,1.11c1.08.25,2.16.54,3.25.87a5.9,5.9,0,0,1,2.75,1.77,4.76,4.76,0,0,1,1.14,3.31,5.32,5.32,0,0,1-2.19,4.61,8.25,8.25,0,0,1-5,1.58,11,11,0,0,1-4.81-1c-1.36-.66-2-1.47-2-2.44,0-.82.64-1.42,1.92-1.79a3.58,3.58,0,0,0,2,2.09,8.07,8.07,0,0,0,3.4.72,5,5,0,0,0,3-.8,2.64,2.64,0,0,0,1.14-2.29,2.37,2.37,0,0,0-1.14-2.19,8.87,8.87,0,0,0-2.75-1c-1.07-.24-2.15-.52-3.23-.84a5.89,5.89,0,0,1-2.77-1.86,5.73,5.73,0,0,1-1.12-3.74,4.7,4.7,0,0,1,2.2-3.95,7.79,7.79,0,0,1,4.58-1.58,9.9,9.9,0,0,1,4.31.91q1.92.89,1.92,2.34T1005,634.69Z"/>
        <path class="cls-6" d="M872,530.34h0a33.9,33.9,0,0,1,33.9-33.9h100a33.9,33.9,0,0,1,33.89,33.9V550.1h0A33.89,33.89,0,0,1,1005.83,584h-100A33.9,33.9,0,0,1,872,550.1Z"/>
        <path class="cls-7" d="M872,530.34h0a33.9,33.9,0,0,1,33.9-33.9h100a33.9,33.9,0,0,1,33.89,33.9V550.1h0A33.89,33.89,0,0,1,1005.83,584h-100A33.9,33.9,0,0,1,872,550.1Z"/>
        <path d="M997.18,549.81a8.61,8.61,0,0,1-1.86,5.81,6.86,6.86,0,0,1-10,0,8.7,8.7,0,0,1-1.84-5.84,8.55,8.55,0,0,1,1.84-5.8,6.31,6.31,0,0,1,5-2.14,6.22,6.22,0,0,1,5,2.16A8.59,8.59,0,0,1,997.18,549.81Zm-6.92,5.56a3.13,3.13,0,0,0,2.73-1.48,6.5,6.5,0,0,0,1-3.77,8.65,8.65,0,0,0-1-4.1,2.92,2.92,0,0,0-2.64-1.83,3.27,3.27,0,0,0-2.75,1.45,6,6,0,0,0-1.08,3.72,8.89,8.89,0,0,0,1,4.16A3,3,0,0,0,990.26,555.37Zm-19.54.72,14.21-22.4c2.43-3.88,4.36-7.08,5.76-9.61a3,3,0,0,1,1.49.48,1.21,1.21,0,0,1,.67,1,2,2,0,0,1-.33,1.07L978.3,549.09c-2.27,3.59-4.19,6.78-5.75,9.6q-2.06-.44-2.22-1.44A2.07,2.07,0,0,1,970.72,556.09Zm8.83-22.73a8.62,8.62,0,0,1-1.84,5.8,6.88,6.88,0,0,1-10,0,8.67,8.67,0,0,1-1.84-5.83,8.58,8.58,0,0,1,1.84-5.81,6.84,6.84,0,0,1,10,0A8.61,8.61,0,0,1,979.55,533.36Zm-6.92,5.55a3.12,3.12,0,0,0,2.73-1.49,6.49,6.49,0,0,0,1-3.76,8.53,8.53,0,0,0-1-4.1,2.9,2.9,0,0,0-2.64-1.83,3.31,3.31,0,0,0-2.75,1.44,6,6,0,0,0-1.08,3.72,8.78,8.78,0,0,0,1,4.16A3,3,0,0,0,972.63,538.91Z"/>
        <path class="cls-3" d="M497.19,358h0A37.07,37.07,0,0,1,534.26,321H745.74A37.06,37.06,0,0,1,782.81,358h0a37.07,37.07,0,0,1-37.07,37.07H534.26A37.07,37.07,0,0,1,497.19,358Z"/>
        <path d="M597.28,348c0,.62-.95,2.39-2.84,5.28a74.31,74.31,0,0,1-5,6.89v3.17a31.14,31.14,0,0,0,.71,7.88,4.4,4.4,0,0,1-1.77.3A1.76,1.76,0,0,1,587,371a2.82,2.82,0,0,1-.36-1.64q0-3.44.06-6.64V360.4q-5.4-10.2-8.28-12.14a6.51,6.51,0,0,1,.81-1l.53-.46a1.64,1.64,0,0,1,1-.35,2.32,2.32,0,0,1,1.78,1.26,117.26,117.26,0,0,1,6,10.16,45,45,0,0,0,3.82-6.3c1.36-2.62,2.06-4.4,2.11-5.31C596.33,346.41,597.28,347,597.28,348Zm15.05,14.75a9.4,9.4,0,0,1-2.25,6.58,8.27,8.27,0,0,1-11.75,0,10.8,10.8,0,0,1,0-13.17,8.18,8.18,0,0,1,11.75,0A9.43,9.43,0,0,1,612.33,362.71Zm-8.13,6.94a5,5,0,0,0,4-1.75,7.32,7.32,0,0,0,1.45-4.82,8.84,8.84,0,0,0-1.5-5.2,4.66,4.66,0,0,0-4.06-2.15,4.85,4.85,0,0,0-4,1.78,7.39,7.39,0,0,0-1.44,4.82,8.94,8.94,0,0,0,1.45,5.19A4.64,4.64,0,0,0,604.2,369.65Zm26.33-14.33-.14,8.47a30.78,30.78,0,0,0,.7,7.39,3.7,3.7,0,0,1-1.37.3c-1.15,0-1.72-.62-1.72-1.86a9.38,9.38,0,0,1-5.94,2.12q-5.29,0-5.29-5.26l.11-6.65a21.16,21.16,0,0,0-.64-5.64,4.44,4.44,0,0,1,1.59-.29,1.67,1.67,0,0,1,1.26.43,2,2,0,0,1,.44,1.47l-.23,9.68a4.46,4.46,0,0,0,1,3.09,3.34,3.34,0,0,0,2.56,1.08,7.55,7.55,0,0,0,5-2q0-1.61,0-6c0-2.91-.08-5.46-.25-7.62a6.46,6.46,0,0,1,1.27-.11C630,353.9,630.53,354.37,630.53,355.32Zm14.05,13.92.06-6.23v-7.74q0-5.26-.25-8.65a8.42,8.42,0,0,1,1.53-.11c1.22,0,1.83.47,1.83,1.42,0,.14,0,.64-.08,1.48-.14,2.6-.22,4.89-.22,6.88v3.36c0,5.17.09,8.31.25,9.4,1.06.06,1.88.08,2.47.08,3.89,0,6.39-.28,7.5-.86a4.73,4.73,0,0,1,.27,1.55,1.35,1.35,0,0,1-.35,1.06c-.41.38-2.21.56-5.4.56s-5.14,0-5.85-.06a1.81,1.81,0,0,1-1.42-.53A2.9,2.9,0,0,1,644.58,369.24Zm16,.11.06-6.61q0-5.33-.25-8.73a6.46,6.46,0,0,1,1.27-.11c1.17,0,1.75.47,1.75,1.42,0,.12,0,.62-.08,1.48-.14,2.67-.22,5.34-.22,8a22.84,22.84,0,0,0,.71,6.36,3.9,3.9,0,0,1-1.6.3A1.54,1.54,0,0,1,661,371,2.82,2.82,0,0,1,660.59,369.35Zm3.17-19.42a1.95,1.95,0,0,1-3.29,1.44,2,2,0,0,1-.55-1.43,1.92,1.92,0,0,1,.59-1.43,1.89,1.89,0,0,1,1.36-.58,1.77,1.77,0,0,1,1.33.58A1.93,1.93,0,0,1,663.76,349.93Zm4.6,19.61.06-10.67v-4.33a107.33,107.33,0,0,0-.3-10.8,7.8,7.8,0,0,1,1.31-.11c1.15,0,1.72.48,1.72,1.42,0,.1,0,.67,0,1.72q-.23,5.76-.22,9.36a8.24,8.24,0,0,1,5.72-2.5,4.82,4.82,0,0,1,3.68,1.33,4.76,4.76,0,0,1,1.27,3.44,5.64,5.64,0,0,1-1.41,3.76,5.55,5.55,0,0,1-3.89,1.92,28.42,28.42,0,0,0,3,4.32,3,3,0,0,0,2.14,1,2.5,2.5,0,0,0,1-.16,3,3,0,0,1,.32,1.22c0,.36-.26.65-.78.89a3.58,3.58,0,0,1-1.5.36,3.62,3.62,0,0,1-2.68-1.34,17.06,17.06,0,0,1-2.1-2.78l-1.4-2.38c-.38-.62-.63-1.05-.75-1.26-.65-.08-1-.34-1-.79a2.66,2.66,0,0,1,.18-.9,9,9,0,0,0,1.91.26,4.22,4.22,0,0,0,3.16-1.14,3.51,3.51,0,0,0,1.12-2.51,3.37,3.37,0,0,0-.76-2.27,2.6,2.6,0,0,0-2.08-.9,5.73,5.73,0,0,0-2.72.76,8.63,8.63,0,0,0-2.42,1.92v5.41a27.63,27.63,0,0,0,.72,7.36,3.87,3.87,0,0,1-1.58.3,1.64,1.64,0,0,1-1.28-.44A2.29,2.29,0,0,1,668.36,369.54Zm25.33-15.91a6.06,6.06,0,0,1,4.24,1.49,4.28,4.28,0,0,1,1.62,3.18A5.67,5.67,0,0,1,699,361a4,4,0,0,1-1.36,1.53,6.39,6.39,0,0,1-2.39.86,43.26,43.26,0,0,1-7.17.44,7.83,7.83,0,0,0,1.62,4.26,4.87,4.87,0,0,0,3.94,1.57,3.88,3.88,0,0,0,3.69-1.94c1,.4,1.5.94,1.5,1.64s-.57,1.27-1.7,1.72a10.15,10.15,0,0,1-3.79.67,7.82,7.82,0,0,1-5.75-2.22q-2.24-2.22-2.23-6.67t2.47-6.84A8.15,8.15,0,0,1,693.69,353.63Zm-.14,2.06a5.31,5.31,0,0,0-3.84,1.54,6.5,6.5,0,0,0-1.64,4.73q5.32,0,7.08-.78a3.69,3.69,0,0,0,1.28-1,2.62,2.62,0,0,0-.44-3.64A3.57,3.57,0,0,0,693.55,355.69Z"/>
    </g>
    <text class="cls-12" transform="translate(273.92 202.09)">{{BV}}</text>
    <text class="cls-12" transform="translate(910.17 202.09)">{{SV}}</text>
    <text class="cls-12" transform="translate(272 557.47)">{{MCV}}</text>
    <text class="cls-12" transform="translate(907.17 557.36)">{{OV}}</text>
    <text/>
</svg>