<svg xmlns="http://www.w3.org/2000/svg" viewBox="0 0 960 {{height}}">
    <defs>
        <style>.cls-1{fill:#fff;}.cls-2{fill:#f9c907;}.cls-3{fill:#f45844;}.cls-4{fill:#aad356;}.cls-5{fill:#1799a7;}.cls-6{fill:none;stroke:#fff;stroke-miterlimit:10;stroke-dasharray:7.02 3.01;}.cls-7{font-size:16px;font-family:Helvetica;}</style>
    </defs>
    <title>Page2</title>
    <g id="Background">
        <rect class="cls-1" width="960" height="{{height}}"/>
    </g>
    <g id="Summary">
        <path d="M436.55,30.28a3.84,3.84,0,0,0-1.79-1.6,6.07,6.07,0,0,0-2.72-.63,3.73,3.73,0,0,0-2.43.83,2.67,2.67,0,0,0-1,2.2,3,3,0,0,0,.74,2.16,4.13,4.13,0,0,0,1.86,1.08q1.11.32,2.43.75c.88.29,1.68.6,2.42.91a4.1,4.1,0,0,1,1.85,1.6,4.87,4.87,0,0,1,.75,2.74,6,6,0,0,1-.59,2.76,4.48,4.48,0,0,1-1.58,1.8,7.91,7.91,0,0,1-4.39,1.25,10.14,10.14,0,0,1-4.21-.8c-1.15-.54-1.73-1.18-1.73-1.94a1.34,1.34,0,0,1,.73-1.14l.76-.41a4.1,4.1,0,0,0,2,1.77,7,7,0,0,0,3,.68,4.32,4.32,0,0,0,2.73-.89,2.83,2.83,0,0,0,1.18-2.4,2.75,2.75,0,0,0-1-2.32A7.07,7.07,0,0,0,433,37.47c-1-.28-2-.58-3-.91a5.87,5.87,0,0,1-2.51-1.68,4.67,4.67,0,0,1-1-3.15,5,5,0,0,1,1.77-4.11,6.94,6.94,0,0,1,4.51-1.43,9.67,9.67,0,0,1,3.72.71c1.14.46,1.71,1.1,1.71,1.91S437.65,30.08,436.55,30.28Zm16.35,3-.12,6.64a22.78,22.78,0,0,0,.56,5.77,2.87,2.87,0,0,1-1.08.24c-.9,0-1.34-.49-1.34-1.46a7.32,7.32,0,0,1-4.65,1.66c-2.76,0-4.15-1.37-4.15-4.12l.09-5.2a16.54,16.54,0,0,0-.49-4.4,3.14,3.14,0,0,1,1.23-.24,1.31,1.31,0,0,1,1,.34,1.58,1.58,0,0,1,.34,1.16s0,2.52-.17,7.56a3.48,3.48,0,0,0,.77,2.42,2.61,2.61,0,0,0,2,.85,5.9,5.9,0,0,0,3.95-1.61c0-.83,0-2.39,0-4.66s-.07-4.27-.2-6a4.43,4.43,0,0,1,1-.1C452.46,32.17,452.9,32.54,452.9,33.28Zm20.44,11.16.18-7.56a3.72,3.72,0,0,0-.69-2.47A2.23,2.23,0,0,0,471,33.6a5.89,5.89,0,0,0-3.62,1.56q.06,4,.06,6.32c0,1.57.06,3,.17,4.33a5.21,5.21,0,0,1-1,.09q-1.32,0-1.32-1.11c0-.07,0-.46,0-1.16q.12-2.52.12-6.75c0-2.18-.86-3.28-2.57-3.28a5.79,5.79,0,0,0-3.59,1.61q0,4,.05,6.3c0,1.55.06,3,.18,4.3a5.21,5.21,0,0,1-1,.09q-1.32,0-1.32-1.11c0-.07,0-.79.08-2.15s.07-2.7.07-4c0-3.19-.18-5.26-.55-6.19a2.72,2.72,0,0,1,1-.24q1.35,0,1.35,1.47a7.55,7.55,0,0,1,2.15-1.2,6.79,6.79,0,0,1,2.43-.47,3.2,3.2,0,0,1,3.24,1.9,6.41,6.41,0,0,1,2.21-1.35A7.73,7.73,0,0,1,472.1,32a3.3,3.3,0,0,1,2.41,1,4.27,4.27,0,0,1,1,3.14l-.08,5.2a16.24,16.24,0,0,0,.49,4.4,3.19,3.19,0,0,1-1.24.24,1.39,1.39,0,0,1-1-.33A1.66,1.66,0,0,1,473.34,44.44Zm22.58,0,.18-7.56a3.72,3.72,0,0,0-.69-2.47,2.25,2.25,0,0,0-1.79-.81A5.94,5.94,0,0,0,490,35.16q.08,4,.07,6.32c0,1.57.05,3,.17,4.33a5.39,5.39,0,0,1-1,.09c-.87,0-1.31-.37-1.31-1.11,0-.07,0-.46,0-1.16q.12-2.52.12-6.75c0-2.18-.86-3.28-2.57-3.28a5.84,5.84,0,0,0-3.6,1.61q.06,4,.06,6.3c0,1.55.06,3,.18,4.3a5.28,5.28,0,0,1-1,.09q-1.32,0-1.32-1.11c0-.07,0-.79.07-2.15s.08-2.7.08-4c0-3.19-.19-5.26-.56-6.19a2.81,2.81,0,0,1,1.05-.24q1.35,0,1.35,1.47a7.55,7.55,0,0,1,2.15-1.2A6.79,6.79,0,0,1,486.4,32a3.2,3.2,0,0,1,3.24,1.9,6.36,6.36,0,0,1,2.2-1.35,7.78,7.78,0,0,1,2.84-.55,3.3,3.3,0,0,1,2.41,1,4.27,4.27,0,0,1,1,3.14l-.08,5.2a16.24,16.24,0,0,0,.49,4.4,3.22,3.22,0,0,1-1.24.24,1.39,1.39,0,0,1-1-.33A1.66,1.66,0,0,1,495.92,44.44Zm15.77-7.71-.05,4a16.85,16.85,0,0,0,.55,5,2.45,2.45,0,0,1-1.13.24,1.2,1.2,0,0,1-.92-.3,2,2,0,0,1-.34-1,5.86,5.86,0,0,1-3.75,1.48q-4.49,0-4.49-4.12a2.94,2.94,0,0,1,.7-2.18,4.42,4.42,0,0,1,1.93-1.06,29.89,29.89,0,0,1,5.54-.78,6.79,6.79,0,0,0-.61-3.43c-.4-.64-1.27-1-2.6-1a3.32,3.32,0,0,0-1.69.53,3.21,3.21,0,0,0-1.31,1.52q-1.35-.26-1.35-1.17a2.07,2.07,0,0,1,1.4-1.82,8.16,8.16,0,0,1,3.6-.69,4.86,4.86,0,0,1,3.36,1C511.3,33.7,511.69,34.94,511.69,36.73Zm-2,2.75c-.57.05-1,.1-1.28.15l-1.14.14a6.27,6.27,0,0,0-1.06.18l-.86.23a2.53,2.53,0,0,0-.76.32c-.16.12-.34.24-.51.38a1.39,1.39,0,0,0-.5,1.13,2.41,2.41,0,0,0,.76,2,2.93,2.93,0,0,0,1.93.63,4.68,4.68,0,0,0,3.36-1.31c0-.28,0-.77,0-1.49S509.65,40.3,509.71,39.48Zm6,4.79.06-5.18c0-2.78-.06-5.05-.2-6.82a4.52,4.52,0,0,1,1-.1c.83,0,1.25.37,1.25,1.11,0,0,0,.18,0,.4s0,.43,0,.63a6.16,6.16,0,0,1,1.56-1.63,3.16,3.16,0,0,1,1.79-.71q1.59,0,1.59,1.14a2.34,2.34,0,0,1-.59,1.32,2.15,2.15,0,0,0-1.43-.56,2.69,2.69,0,0,0-1.61.64,5.38,5.38,0,0,0-1.37,1.69c0,.67,0,2.11,0,4.33a18.66,18.66,0,0,0,.56,5.16,3,3,0,0,1-1.24.24,1.24,1.24,0,0,1-1-.38A2.17,2.17,0,0,1,515.69,44.27ZM534,32c.69,0,1,.42,1,1.27a18.47,18.47,0,0,1-1,4.56,49,49,0,0,1-2.47,6.32,42.19,42.19,0,0,1-4.85,8.29,1.52,1.52,0,0,1-1.13.76c-.55,0-1.08-.39-1.6-1.16a12.56,12.56,0,0,0,2.33-2.27,28.28,28.28,0,0,0,2.54-3.43q-1-3.39-2.78-7.72c-1.17-2.9-2.17-4.74-3-5.54a2.86,2.86,0,0,1,1.68-.93c.43,0,.81.31,1.12.93.47.93,1.16,2.57,2.07,4.9s1.6,4.25,2,5.79a45.86,45.86,0,0,0,2.2-5.83,18,18,0,0,0,1-4.95q0-.15-.06-.84A2.93,2.93,0,0,1,534,32Z"/>
    </g>
    <g id="boxes">
        <rect class="cls-2" x="9" y="88" width="220" height="126" rx="8.5"/>
        <rect class="cls-3" x="244" y="88" width="222" height="126" rx="8.5"/>
        <rect class="cls-4" x="482" y="88" width="227" height="126" rx="8.5"/>
        <rect class="cls-5" x="725" y="88" width="227" height="126" rx="8.5"/>
    </g>
    <g id="strokes">
        <rect class="cls-6" x="92" y="135.5" width="54" height="31" rx="11.34"/>
        <rect class="cls-6" x="328.5" y="135.5" width="54" height="31" rx="11.34"/>
        <rect class="cls-6" x="563.5" y="135.5" width="54" height="31" rx="11.34"/>
        <rect class="cls-6" x="811.5" y="135.5" width="54" height="31" rx="11.34"/>
    </g>
    <g id="Nmae">
        <path d="M82.83,178c-.32,0-.76,0-1.34.08.05,1.1.08,2.57.08,4.42.42,0,.78,0,1.08,0,2.44,0,3.66-.74,3.66-2.24S85.15,178,82.83,178Zm.94,11a3.24,3.24,0,0,0,2.14-.72,2.48,2.48,0,0,0,.86-2,2.38,2.38,0,0,0-1-2,3.72,3.72,0,0,0-2.31-.73,14.06,14.06,0,0,0-1.94.1c0,1.05-.09,2.61-.25,4.7a3.21,3.21,0,0,0,1.08.5A5,5,0,0,0,83.77,189.05Zm-4-.05a47,47,0,0,0,.32-6.22,44.12,44.12,0,0,0-.26-5.72,20.94,20.94,0,0,1,3.36-.23,6.42,6.42,0,0,1,3.26.78,2.83,2.83,0,0,1,1.36,2.67,2.7,2.7,0,0,1-1.72,2.66,3.35,3.35,0,0,1,2.19,3.36,3.67,3.67,0,0,1-1.21,2.91,4.37,4.37,0,0,1-3,1A6.65,6.65,0,0,1,79.78,189Zm14.66-8.29a3.17,3.17,0,0,1,2.23.78,2.26,2.26,0,0,1,.85,1.68,3.12,3.12,0,0,1-.27,1.42,2.15,2.15,0,0,1-.72.8,3.33,3.33,0,0,1-1.27.45,21.69,21.69,0,0,1-3.77.24,4.1,4.1,0,0,0,.86,2.24,2.54,2.54,0,0,0,2.07.82,2,2,0,0,0,1.94-1c.53.21.79.5.79.87s-.3.66-.89.9a5.52,5.52,0,0,1-2,.35,4.16,4.16,0,0,1-3-1.16,4.81,4.81,0,0,1-1.17-3.52,4.72,4.72,0,0,1,1.3-3.59A4.29,4.29,0,0,1,94.44,180.71Zm-.08,1.08a2.78,2.78,0,0,0-2,.81,3.46,3.46,0,0,0-.88,2.5,10.91,10.91,0,0,0,3.73-.41,1.91,1.91,0,0,0,.68-.51,1.36,1.36,0,0,0-.24-1.92A1.84,1.84,0,0,0,94.36,181.79Zm11.28-1.08a.65.65,0,0,1,.73.75,13,13,0,0,1-1,4,13.44,13.44,0,0,1-2,3.88,2.63,2.63,0,0,1-.63.61,1,1,0,0,1-.56.16,3.05,3.05,0,0,1-.6-.06,34.84,34.84,0,0,0-1.5-5.12,11.18,11.18,0,0,0-1.76-3.58,1.67,1.67,0,0,1,1.08-.54q.5,0,.78.69c.28.63.68,1.71,1.22,3.24s.94,2.83,1.2,3.89a12.26,12.26,0,0,0,1.62-3.3,11.9,11.9,0,0,0,.82-3.9,3.11,3.11,0,0,0-.06-.62A2.13,2.13,0,0,1,105.64,180.71Zm6.66,0a3.17,3.17,0,0,1,2.23.78,2.26,2.26,0,0,1,.85,1.68,3.12,3.12,0,0,1-.27,1.42,2.15,2.15,0,0,1-.72.8,3.33,3.33,0,0,1-1.27.45,21.69,21.69,0,0,1-3.77.24,4.1,4.1,0,0,0,.86,2.24,2.54,2.54,0,0,0,2.07.82,2,2,0,0,0,1.94-1c.53.21.79.5.79.87s-.3.66-.89.9a5.52,5.52,0,0,1-2,.35,4.16,4.16,0,0,1-3-1.16,4.81,4.81,0,0,1-1.17-3.52,4.72,4.72,0,0,1,1.3-3.59A4.31,4.31,0,0,1,112.3,180.71Zm-.08,1.08a2.78,2.78,0,0,0-2,.81,3.46,3.46,0,0,0-.88,2.5,11,11,0,0,0,3.74-.41,2,2,0,0,0,.67-.51,1.36,1.36,0,0,0-.24-1.92A1.84,1.84,0,0,0,112.22,181.79Zm5.32,7.2,0-3.48c0-1.87,0-3.41-.14-4.6a3.55,3.55,0,0,1,.67-.06q.84,0,.84.75s0,.12,0,.26,0,.3,0,.43a4,4,0,0,1,1-1.09,2.06,2.06,0,0,1,1.21-.49c.71,0,1.06.26,1.06.77a1.57,1.57,0,0,1-.39.89,1.45,1.45,0,0,0-1-.38,1.77,1.77,0,0,0-1.08.44,3.48,3.48,0,0,0-.92,1.13c0,.45,0,1.42,0,2.91a12.59,12.59,0,0,0,.38,3.48,2.17,2.17,0,0,1-.84.16.81.81,0,0,1-.68-.26A1.45,1.45,0,0,1,117.54,189Zm12.62-5.07,0,2.65a11.34,11.34,0,0,0,.38,3.38,1.79,1.79,0,0,1-.77.16.76.76,0,0,1-.61-.21,1.16,1.16,0,0,1-.23-.66,4,4,0,0,1-2.52,1c-2,0-3-.92-3-2.77a2,2,0,0,1,.47-1.47,3.06,3.06,0,0,1,1.3-.71,19.54,19.54,0,0,1,3.73-.52,4.57,4.57,0,0,0-.41-2.32,2,2,0,0,0-1.75-.64,2.17,2.17,0,0,0-1.13.36,2.12,2.12,0,0,0-.89,1c-.6-.12-.91-.38-.91-.79a1.4,1.4,0,0,1,1-1.22,5.44,5.44,0,0,1,2.41-.47,3.3,3.3,0,0,1,2.26.7A3.24,3.24,0,0,1,130.16,183.92Zm-1.33,1.85c-.39,0-.67.07-.87.1l-.76.09a6.58,6.58,0,0,0-.72.12l-.57.16a1.72,1.72,0,0,0-.52.22c-.11.07-.22.16-.34.25a.94.94,0,0,0-.33.76,1.6,1.6,0,0,0,.51,1.31,2,2,0,0,0,1.29.43,3.12,3.12,0,0,0,2.26-.89c0-.18,0-.51,0-1S128.78,186.32,128.83,185.77Zm5.54,5a3.43,3.43,0,0,0-.73,1.84c0,.85.79,1.28,2.38,1.28a5,5,0,0,0,2.62-.56,1.51,1.51,0,0,0,.91-1.27,1,1,0,0,0-.37-1,2.22,2.22,0,0,0-1.16-.23h-2A10.06,10.06,0,0,1,134.37,190.78Zm1.87-4.15a2.34,2.34,0,0,0,1.74-.55,2.25,2.25,0,0,0,.55-1.66,2.8,2.8,0,0,0-.64-1.86,2.15,2.15,0,0,0-1.74-.75c-1.56,0-2.34.75-2.34,2.24a2.76,2.76,0,0,0,.62,1.85A2.25,2.25,0,0,0,136.24,186.63Zm-.07,1.1a4.58,4.58,0,0,1-1.08-.12,4.68,4.68,0,0,0-.52.81,1.7,1.7,0,0,0-.22.69q0,.48,1.29.48h2.26c1.94,0,2.91.71,2.91,2.11a2.76,2.76,0,0,1-1.43,2.39A6,6,0,0,1,136,195a4.91,4.91,0,0,1-2.85-.67,2.06,2.06,0,0,1-.92-1.73,2.77,2.77,0,0,1,1.29-2.08,1.19,1.19,0,0,1-.59-.9,4.3,4.3,0,0,1,1.35-2.26,3.14,3.14,0,0,1-1.88-3.13,3.29,3.29,0,0,1,1.06-2.5,3.62,3.62,0,0,1,2.6-1,4,4,0,0,1,2.53.77,2.28,2.28,0,0,1,1.77-1.1,1.28,1.28,0,0,1,.68.18.54.54,0,0,1,.28.48,2.15,2.15,0,0,1-.15.72,3.21,3.21,0,0,0-.7,0,2.83,2.83,0,0,0-1.26.4,3.49,3.49,0,0,1,.66,2.12,3.21,3.21,0,0,1-1.1,2.56A3.92,3.92,0,0,1,136.17,187.73Zm10.85-7a3.17,3.17,0,0,1,2.23.78,2.26,2.26,0,0,1,.85,1.68,3.12,3.12,0,0,1-.27,1.42,2.15,2.15,0,0,1-.72.8,3.33,3.33,0,0,1-1.27.45,21.69,21.69,0,0,1-3.77.24,4.1,4.1,0,0,0,.86,2.24,2.54,2.54,0,0,0,2.07.82,2,2,0,0,0,1.94-1c.53.21.79.5.79.87s-.3.66-.89.9a5.52,5.52,0,0,1-2,.35,4.16,4.16,0,0,1-3-1.16,4.81,4.81,0,0,1-1.17-3.52,4.72,4.72,0,0,1,1.3-3.59A4.29,4.29,0,0,1,147,180.71Zm-.08,1.08a2.78,2.78,0,0,0-2,.81,3.46,3.46,0,0,0-.88,2.5,10.91,10.91,0,0,0,3.73-.41,1.91,1.91,0,0,0,.68-.51,1.36,1.36,0,0,0-.24-1.92A1.84,1.84,0,0,0,146.94,181.79Zm10.14,1.31a1.74,1.74,0,0,0-.89-.93,2.8,2.8,0,0,0-1.36-.36,2,2,0,0,0-1.19.37,1.15,1.15,0,0,0-.49,1,1.09,1.09,0,0,0,.52,1,4.26,4.26,0,0,0,1.26.51c.5.12,1,.25,1.5.4a2.67,2.67,0,0,1,1.27.82,2.18,2.18,0,0,1,.52,1.52,2.46,2.46,0,0,1-1,2.13,3.8,3.8,0,0,1-2.28.72,5.2,5.2,0,0,1-2.22-.44c-.63-.31-.94-.68-.94-1.13s.3-.65.89-.82a1.62,1.62,0,0,0,.93,1,3.7,3.7,0,0,0,1.56.33,2.31,2.31,0,0,0,1.37-.37,1.21,1.21,0,0,0,.52-1.05,1.09,1.09,0,0,0-.52-1,4.21,4.21,0,0,0-1.27-.48c-.5-.11-1-.24-1.49-.39a2.68,2.68,0,0,1-1.27-.86,2.6,2.6,0,0,1-.52-1.72,2.17,2.17,0,0,1,1-1.82,3.62,3.62,0,0,1,2.11-.73,4.61,4.61,0,0,1,2,.42c.59.27.88.63.88,1.08S157.67,183,157.08,183.1Z"/>
        <path class="cls-1" d="M334.93,181.5a2.67,2.67,0,0,0-1.26-1.13,4.36,4.36,0,0,0-1.92-.44,2.63,2.63,0,0,0-1.72.58,1.9,1.9,0,0,0-.71,1.56,2.09,2.09,0,0,0,.52,1.52,2.82,2.82,0,0,0,1.32.77c.52.14,1.09.32,1.71.52s1.19.43,1.71.65a2.83,2.83,0,0,1,1.31,1.13,3.44,3.44,0,0,1,.52,1.93,4.19,4.19,0,0,1-.41,1.95,3.07,3.07,0,0,1-1.11,1.27,5.58,5.58,0,0,1-3.11.89,7,7,0,0,1-3-.57c-.81-.38-1.22-.83-1.22-1.37a1,1,0,0,1,.51-.81l.54-.28a2.86,2.86,0,0,0,1.41,1.24,4.82,4.82,0,0,0,2.13.49,3.07,3.07,0,0,0,1.92-.63,2,2,0,0,0,.83-1.7,2,2,0,0,0-.73-1.64,5,5,0,0,0-1.77-.85c-.7-.2-1.4-.41-2.09-.64a4.15,4.15,0,0,1-1.78-1.19,3.29,3.29,0,0,1-.72-2.22,3.48,3.48,0,0,1,1.25-2.9,4.85,4.85,0,0,1,3.18-1,6.88,6.88,0,0,1,2.63.5q1.2.49,1.2,1.35C336.1,181,335.71,181.36,334.93,181.5Zm10.07,10,.12-5.34a2.36,2.36,0,0,0-.57-1.73,1.91,1.91,0,0,0-1.45-.58,4.32,4.32,0,0,0-2.76,1.13c0,1.88,0,3.36,0,4.45s.05,2.11.13,3a3.88,3.88,0,0,1-.7.06q-.93,0-.93-.78c0-.05,0-.56.05-1.52s.06-1.9.06-2.85a14.54,14.54,0,0,0-.4-4.38,2,2,0,0,1,.74-.16c.64,0,1,.34,1,1a5.69,5.69,0,0,1,1.58-.82,5.84,5.84,0,0,1,2-.36,2.7,2.7,0,0,1,1.85.7,2.81,2.81,0,0,1,.78,2.21l-.06,3.67a11.72,11.72,0,0,0,.34,3.12,2.32,2.32,0,0,1-.87.16,1,1,0,0,1-.71-.23A1.18,1.18,0,0,1,345,191.5Zm11.14-5.44,0,2.78a12,12,0,0,0,.39,3.55,1.78,1.78,0,0,1-.8.16.85.85,0,0,1-.65-.21,1.35,1.35,0,0,1-.24-.69,4.16,4.16,0,0,1-2.65,1q-3.16,0-3.17-2.91a2.08,2.08,0,0,1,.49-1.54,3.06,3.06,0,0,1,1.37-.75,20.24,20.24,0,0,1,3.91-.55,4.82,4.82,0,0,0-.43-2.43c-.28-.45-.9-.67-1.83-.67a2.43,2.43,0,0,0-2.13,1.44c-.63-.12-.95-.39-.95-.82a1.47,1.47,0,0,1,1-1.29,5.83,5.83,0,0,1,2.54-.49,3.45,3.45,0,0,1,2.37.74A3.41,3.41,0,0,1,356.14,186.06Zm-1.4,1.94-.91.1-.8.1a6.74,6.74,0,0,0-.76.13l-.6.17a1.76,1.76,0,0,0-.54.22l-.36.27a1,1,0,0,0-.35.8,1.66,1.66,0,0,0,.54,1.37,2,2,0,0,0,1.36.45,3.27,3.27,0,0,0,2.37-.93c0-.19,0-.54,0-1.05S354.69,188.58,354.74,188Zm8.27,3.54a3.33,3.33,0,0,0,1.25-.26,1.7,1.7,0,0,0,.91-.81c.55.22.82.5.82.83s-.31.8-.93,1a5.89,5.89,0,0,1-2.12.36,4.3,4.3,0,0,1-3.13-1.23,4.9,4.9,0,0,1-1.26-3.66,6.23,6.23,0,0,1,.41-2.32,4.22,4.22,0,0,1,1.1-1.62,4.59,4.59,0,0,1,3-1.18,4.37,4.37,0,0,1,2,.48,1.47,1.47,0,0,1,1,1.34c0,.5-.33.79-1,.89a1.87,1.87,0,0,0-.88-1.14,2.71,2.71,0,0,0-1.41-.41,2.39,2.39,0,0,0-1.95,1,4.59,4.59,0,0,0-.79,2.88,4.17,4.17,0,0,0,.83,2.82A2.72,2.72,0,0,0,363,191.54Zm5.19-.06.05-5.9v-2.39a58.69,58.69,0,0,0-.17-6,4,4,0,0,1,.72-.06c.63,0,.95.26.95.78,0,.05,0,.37,0,1-.08,2.12-.12,3.84-.12,5.18a4.52,4.52,0,0,1,3.16-1.39,2.7,2.7,0,0,1,2,.74,2.62,2.62,0,0,1,.7,1.9,3.16,3.16,0,0,1-.78,2.09,3.06,3.06,0,0,1-2.15,1.05,14.66,14.66,0,0,0,1.64,2.38,1.62,1.62,0,0,0,1.18.57,1.58,1.58,0,0,0,.54-.08,1.53,1.53,0,0,1,.18.67c0,.2-.14.36-.43.49a1.84,1.84,0,0,1-2.31-.54,10.18,10.18,0,0,1-1.16-1.54c-.31-.53-.57-1-.78-1.3l-.41-.71c-.36,0-.54-.19-.54-.43a1.37,1.37,0,0,1,.11-.5,5,5,0,0,0,1,.15,2.34,2.34,0,0,0,1.75-.63,2,2,0,0,0,.62-1.4,1.85,1.85,0,0,0-.42-1.25,1.44,1.44,0,0,0-1.15-.5,3.16,3.16,0,0,0-1.5.42,4.69,4.69,0,0,0-1.34,1.07v3a15.47,15.47,0,0,0,.39,4.06,2.14,2.14,0,0,1-.87.16.92.92,0,0,1-.71-.24A1.27,1.27,0,0,1,368.2,191.48Z"/>
        <path class="cls-1" d="M383,185.5a1.84,1.84,0,0,0-.93-1,3,3,0,0,0-1.42-.37,2.05,2.05,0,0,0-1.26.39,1.22,1.22,0,0,0-.51,1,1.13,1.13,0,0,0,.54,1,4.62,4.62,0,0,0,1.33.54c.53.12,1.05.26,1.57.42a2.75,2.75,0,0,1,1.33.86,2.28,2.28,0,0,1,.56,1.6,2.59,2.59,0,0,1-1.06,2.23,4,4,0,0,1-2.41.76,5.36,5.36,0,0,1-2.32-.47c-.66-.32-1-.71-1-1.18s.31-.68.92-.87a1.78,1.78,0,0,0,1,1,3.88,3.88,0,0,0,1.64.34,2.4,2.4,0,0,0,1.43-.38,1.28,1.28,0,0,0,.56-1.11,1.14,1.14,0,0,0-.56-1.06,4.4,4.4,0,0,0-1.33-.51c-.51-.11-1-.25-1.56-.4a3,3,0,0,1-1.34-.9,2.81,2.81,0,0,1-.54-1.81,2.28,2.28,0,0,1,1.06-1.91,3.75,3.75,0,0,1,2.22-.76,4.84,4.84,0,0,1,2.08.43q.93.44.93,1.14T383,185.5Z"/>
        <path d="M549.07,188.39l0-3.39v-4.81a12,12,0,0,0-.37-3.37,4.88,4.88,0,0,1,1.12-.15,1.58,1.58,0,0,1,1.35.92,26.71,26.71,0,0,1,1.51,3.18c.51,1.24.91,2.3,1.19,3.16s.7,2.1,1.22,3.74a51.61,51.61,0,0,1,1.6-5.13,32.54,32.54,0,0,1,2.25-4.95,1.53,1.53,0,0,1,1.39-.92,3.2,3.2,0,0,1,1.07.15,18,18,0,0,0-.34,4.27v4.45a14,14,0,0,0,.37,3.79,2.37,2.37,0,0,1-.91.15.91.91,0,0,1-.74-.24,1,1,0,0,1-.19-.62c0-.24,0-.77,0-1.57,0-2.41,0-5.17,0-8.29a69.22,69.22,0,0,0-3.84,10.63,1.61,1.61,0,0,1-.51.07.93.93,0,0,1-1-.5c-.31-.68-.88-2.22-1.73-4.59a55.14,55.14,0,0,0-2.27-5.58v6.75a14.48,14.48,0,0,0,.36,3.79,2,2,0,0,1-.8.15.78.78,0,0,1-.65-.24A1.5,1.5,0,0,1,549.07,188.39Zm21.15-4.93,0,2.58a11.15,11.15,0,0,0,.37,3.29,1.68,1.68,0,0,1-.74.15.76.76,0,0,1-.61-.2,1.29,1.29,0,0,1-.22-.64,3.82,3.82,0,0,1-2.45,1c-2,0-2.94-.9-2.94-2.69a2,2,0,0,1,.45-1.43,2.92,2.92,0,0,1,1.27-.7,19.25,19.25,0,0,1,3.63-.51,4.58,4.58,0,0,0-.4-2.25,1.92,1.92,0,0,0-1.7-.62,2.23,2.23,0,0,0-1.11.34,2.12,2.12,0,0,0-.86,1c-.59-.11-.88-.37-.88-.76a1.35,1.35,0,0,1,.91-1.2,5.37,5.37,0,0,1,2.36-.45,3.24,3.24,0,0,1,2.2.68A3.15,3.15,0,0,1,570.22,183.46Zm-1.3,1.8-.84.09-.74.1a4.7,4.7,0,0,0-.7.11l-.56.16a1.59,1.59,0,0,0-.5.21l-.33.24a.92.92,0,0,0-.33.75,1.56,1.56,0,0,0,.5,1.27,1.87,1.87,0,0,0,1.26.41,3,3,0,0,0,2.2-.86c0-.17,0-.5,0-1S568.88,185.79,568.92,185.26Zm4,3.13,0-3.39c0-1.82,0-3.31-.13-4.46a2.7,2.7,0,0,1,.65-.07c.6,0,.9.25.9.73,0,.07,0,.32,0,.76q-.12,2.06-.12,4.11a11.41,11.41,0,0,0,.37,3.26,2,2,0,0,1-.82.15.77.77,0,0,1-.65-.24A1.42,1.42,0,0,1,573,188.39Zm1.62-9.95a1,1,0,0,1-.31.73,1,1,0,0,1-1.37,0,1.06,1.06,0,0,1,0-1.47,1,1,0,0,1,.7-.29.92.92,0,0,1,.68.29A1,1,0,0,1,574.58,178.44Zm8.19,10.07.11-5a2.2,2.2,0,0,0-.53-1.6,1.79,1.79,0,0,0-1.34-.54,4,4,0,0,0-2.57,1.05c0,1.74,0,3.11,0,4.13s0,1.95.12,2.81a3.42,3.42,0,0,1-.65.06c-.58,0-.86-.24-.86-.72,0-.05,0-.52,0-1.41s0-1.77,0-2.65a13.9,13.9,0,0,0-.36-4.05,1.72,1.72,0,0,1,.69-.16c.58,0,.88.32.88,1a5.31,5.31,0,0,1,1.47-.76,5.45,5.45,0,0,1,1.89-.33,2.47,2.47,0,0,1,1.71.64,2.63,2.63,0,0,1,.72,2.06l0,3.4a10.63,10.63,0,0,0,.32,2.89,2.24,2.24,0,0,1-.81.15.89.89,0,0,1-.66-.22A1.08,1.08,0,0,1,582.77,188.51Zm17.05-1.65q.84.34.84,1c0,.42-.36.82-1.09,1.2a5.73,5.73,0,0,1-2.69.56,5.53,5.53,0,0,1-4.32-1.8,6.9,6.9,0,0,1-1.63-4.8,6.57,6.57,0,0,1,1.63-4.72,5.72,5.72,0,0,1,4.4-1.73,4.85,4.85,0,0,1,2.5.6,1.73,1.73,0,0,1,1,1.48c0,.52-.36.84-1.09,1a2.69,2.69,0,0,0-1.14-1.41,3.22,3.22,0,0,0-1.67-.47,3.57,3.57,0,0,0-2.93,1.43,5.74,5.74,0,0,0-1.14,3.7,6.81,6.81,0,0,0,1.14,4,3.93,3.93,0,0,0,4.93,1.25A3,3,0,0,0,599.82,186.86ZM610.68,185a4.78,4.78,0,0,1-1.15,3.36,4.23,4.23,0,0,1-6,0,4.82,4.82,0,0,1-1.14-3.36,4.87,4.87,0,0,1,1.14-3.38,4.2,4.2,0,0,1,6,0A4.83,4.83,0,0,1,610.68,185Zm-4.16,3.55a2.54,2.54,0,0,0,2.07-.89,3.74,3.74,0,0,0,.75-2.47,4.54,4.54,0,0,0-.76-2.67,2.41,2.41,0,0,0-2.09-1.1,2.47,2.47,0,0,0-2,.91,3.81,3.81,0,0,0-.74,2.47,4.61,4.61,0,0,0,.75,2.67A2.38,2.38,0,0,0,606.52,188.54ZM620,181.2l-.07,4.34a15.5,15.5,0,0,0,.36,3.79,1.93,1.93,0,0,1-.71.15c-.58,0-.87-.32-.87-.95a4.83,4.83,0,0,1-3,1.08,2.39,2.39,0,0,1-2.72-2.69l.06-3.41a10.56,10.56,0,0,0-.33-2.88,2,2,0,0,1,.81-.16.86.86,0,0,1,.65.23,1,1,0,0,1,.22.75s0,1.65-.11,5a2.26,2.26,0,0,0,.51,1.58,1.67,1.67,0,0,0,1.31.55,3.85,3.85,0,0,0,2.58-1c0-.55,0-1.56,0-3.05s0-2.8-.13-3.9a2.7,2.7,0,0,1,.65-.07C619.73,180.47,620,180.72,620,181.2Zm2.68,7.19,0-3.39c0-1.82,0-3.31-.13-4.46a2.7,2.7,0,0,1,.65-.07c.55,0,.82.25.82.73,0,0,0,.12,0,.26s0,.28,0,.41a4.25,4.25,0,0,1,1-1.06,2.08,2.08,0,0,1,1.18-.47c.69,0,1,.25,1,.75a1.49,1.49,0,0,1-.39.86,1.4,1.4,0,0,0-.94-.36,1.72,1.72,0,0,0-1.05.42,3.67,3.67,0,0,0-.9,1.1c0,.44,0,1.38,0,2.83a12,12,0,0,0,.37,3.39,2,2,0,0,1-.82.15.81.81,0,0,1-.66-.24A1.42,1.42,0,0,1,622.69,188.39ZM633,182.66a1.72,1.72,0,0,0-.86-.91,2.89,2.89,0,0,0-1.33-.34,1.88,1.88,0,0,0-1.16.36,1.12,1.12,0,0,0-.48,1,1.05,1.05,0,0,0,.51.94,4.06,4.06,0,0,0,1.23.5c.49.11,1,.24,1.46.39a2.65,2.65,0,0,1,1.23.79,2.16,2.16,0,0,1,.51,1.49,2.38,2.38,0,0,1-1,2.07,3.7,3.7,0,0,1-2.23.7,4.91,4.91,0,0,1-2.15-.43c-.61-.3-.91-.66-.91-1.09s.28-.64.86-.81a1.62,1.62,0,0,0,.9.94,3.7,3.7,0,0,0,1.52.32,2.23,2.23,0,0,0,1.33-.36,1.18,1.18,0,0,0,.51-1,1.07,1.07,0,0,0-.51-1,4.1,4.1,0,0,0-1.23-.47c-.48-.1-1-.23-1.45-.37a2.42,2.42,0,0,1-1.74-2.51,2.12,2.12,0,0,1,1-1.77,3.52,3.52,0,0,1,2.06-.71,4.37,4.37,0,0,1,1.93.41c.57.26.86.61.86,1.05S633.55,182.52,633,182.66Zm7-2.32a3.07,3.07,0,0,1,2.17.76,2.21,2.21,0,0,1,.83,1.63,2.91,2.91,0,0,1-.27,1.38,2,2,0,0,1-.7.78,3.28,3.28,0,0,1-1.23.44,20.82,20.82,0,0,1-3.67.23,4,4,0,0,0,.83,2.18,2.5,2.5,0,0,0,2,.8,2,2,0,0,0,1.89-1c.51.2.77.49.77.84s-.29.65-.87.88a5.23,5.23,0,0,1-1.94.34,4,4,0,0,1-3-1.13,5.59,5.59,0,0,1,.12-6.92A4.21,4.21,0,0,1,640,180.34Zm-.08,1a2.75,2.75,0,0,0-2,.78,3.42,3.42,0,0,0-.85,2.44,10.71,10.71,0,0,0,3.63-.4,1.93,1.93,0,0,0,.66-.5,1.28,1.28,0,0,0,.28-.87,1.29,1.29,0,0,0-.51-1A1.76,1.76,0,0,0,639.92,181.39Z"/>
        <path class="cls-1" d="M823.2,185.4a7.71,7.71,0,0,1-1.8,5.36,6.81,6.81,0,0,1-9.62,0,8.93,8.93,0,0,1,0-10.7,6.81,6.81,0,0,1,9.62,0A7.67,7.67,0,0,1,823.2,185.4Zm-2.88-3.93a4.08,4.08,0,0,0-1.51-1.52,4.25,4.25,0,0,0-2.21-.57,4.44,4.44,0,0,0-3.53,1.52,5.69,5.69,0,0,0-1.31,3.86,9.28,9.28,0,0,0,1.08,4.53,4.06,4.06,0,0,0,1.48,1.57,4.21,4.21,0,0,0,2.23.58,4.38,4.38,0,0,0,3.59-1.55,6.24,6.24,0,0,0,1.26-4A8.66,8.66,0,0,0,820.32,181.47Zm6,2.23-2,.15a1.77,1.77,0,0,1-.07-.6.54.54,0,0,1,.33-.56,2.8,2.8,0,0,1,1.09-.15h.61c0-1-.08-1.76-.14-2.41a4,4,0,0,1,.71-.06c.69,0,1,.27,1,.81,0,.21,0,.77-.08,1.68,1.82,0,3,0,3.61-.1a1.19,1.19,0,0,1,.09.54.6.6,0,0,1-.23.53,1.66,1.66,0,0,1-.83.17c-.41,0-1.31,0-2.68,0,0,1.55,0,3.05,0,4.52a5.71,5.71,0,0,0,.42,2.79,1.56,1.56,0,0,0,1.35.58,2.14,2.14,0,0,0,1.58-.65,1.22,1.22,0,0,1,.39.82c0,.27-.19.5-.56.69a3.07,3.07,0,0,1-1.35.27,2.88,2.88,0,0,1-2.53-1,5.21,5.21,0,0,1-.74-3.07C826.3,186.05,826.32,184.41,826.32,183.7Zm13.18,7.81.13-5.78a2.22,2.22,0,0,0-.59-1.59,1.69,1.69,0,0,0-1.27-.61,3.87,3.87,0,0,0-1.59.4,4.26,4.26,0,0,0-1.44,1c0,2-.08,3.52-.08,4.45s.05,2,.15,3.12a4.23,4.23,0,0,1-.73.06c-.64,0-1-.27-1-.81,0-.12,0-.75,0-1.9q.18-5.12.18-8.5a41.76,41.76,0,0,0-.18-4.74,4.58,4.58,0,0,1,.78-.06q1,0,1,.78c0,.52,0,2.63-.15,6.31a5.2,5.2,0,0,1,3.47-1.34q2.89,0,2.9,3.36l-.09,3.5a11.76,11.76,0,0,0,.37,3.25,2.59,2.59,0,0,1-.92.17,1,1,0,0,1-.73-.24A1.22,1.22,0,0,1,839.5,191.51Zm8.94-9.19a3.5,3.5,0,0,1,2.44.85,2.52,2.52,0,0,1,.94,1.85,3.29,3.29,0,0,1-.3,1.54,2.41,2.41,0,0,1-.79.88,3.76,3.76,0,0,1-1.39.5,24.33,24.33,0,0,1-4.12.26,4.42,4.42,0,0,0,.93,2.45,2.82,2.82,0,0,0,2.27.9,2.26,2.26,0,0,0,2.13-1.12c.57.23.86.55.86.95s-.33.73-1,1a6,6,0,0,1-2.18.38,4.52,4.52,0,0,1-3.32-1.27,5.27,5.27,0,0,1-1.28-3.86,5.19,5.19,0,0,1,1.42-3.93A4.74,4.74,0,0,1,848.44,182.32Zm-.08,1.19a3.06,3.06,0,0,0-2.21.88,3.78,3.78,0,0,0-1,2.73,11.87,11.87,0,0,0,4.09-.45,2,2,0,0,0,.74-.56,1.43,1.43,0,0,0,.31-1,1.47,1.47,0,0,0-.57-1.12A2,2,0,0,0,848.36,183.51Zm5.82,7.87.05-3.81c0-2-.05-3.72-.15-5a4.11,4.11,0,0,1,.73-.07c.61,0,.92.28.92.82a2.27,2.27,0,0,1,0,.29v.47a4.5,4.5,0,0,1,1.15-1.2,2.32,2.32,0,0,1,1.32-.53c.78,0,1.17.29,1.17.85a1.73,1.73,0,0,1-.44,1,1.51,1.51,0,0,0-1-.41,1.88,1.88,0,0,0-1.18.47,3.79,3.79,0,0,0-1,1.24c0,.49,0,1.55,0,3.19a13.85,13.85,0,0,0,.41,3.8,2.27,2.27,0,0,1-.91.17.93.93,0,0,1-.75-.27A1.65,1.65,0,0,1,854.18,191.38Zm11.57-6.45a1.9,1.9,0,0,0-1-1,3.1,3.1,0,0,0-1.49-.39,2.15,2.15,0,0,0-1.31.4,1.29,1.29,0,0,0-.53,1.09,1.19,1.19,0,0,0,.56,1,4.75,4.75,0,0,0,1.39.56c.55.13,1.09.28,1.64.44a3,3,0,0,1,1.39.89,2.43,2.43,0,0,1,.57,1.67,2.71,2.71,0,0,1-1.1,2.33,4.17,4.17,0,0,1-2.51.79,5.5,5.5,0,0,1-2.42-.49c-.69-.33-1-.74-1-1.22s.33-.72,1-.91a1.81,1.81,0,0,0,1,1.05,3.89,3.89,0,0,0,1.71.37,2.55,2.55,0,0,0,1.49-.4,1.34,1.34,0,0,0,.58-1.16,1.2,1.2,0,0,0-.58-1.11,4.46,4.46,0,0,0-1.38-.52c-.54-.12-1.09-.27-1.63-.43a2.93,2.93,0,0,1-1.4-.94,2.85,2.85,0,0,1-.56-1.88,2.37,2.37,0,0,1,1.11-2,3.91,3.91,0,0,1,2.3-.8,5.12,5.12,0,0,1,2.18.46c.64.3,1,.69,1,1.18S866.39,184.77,865.75,184.93Z"/>
    </g>
    <g id="percent-text">
        <text class="cls-7" transform="translate(102.06 156.83)">{{BV}}%</text>
        <text class="cls-7" transform="translate(338.09 156.68)">{{SV}}%</text>
        <text class="cls-7" transform="translate(575.09 156.68)">{{MCV}}%</text>
        <text class="cls-7" transform="translate(823.09 156.68)">{{OV}}%</text>
        {% set pos = 240 %}
        {%- for beverage in beveragesL -%}      
        <text class="cls-7" transform="translate(22.11 {{ pos + (25*loop.index0)}})">- {{beverage}}</text>
        {% endfor %}
        
        {%- for snack in snacksL -%}
        <text class="cls-7" transform="translate(258.97 {{ pos + (25*loop.index0)}})">- {{snack}}</text>
        {% endfor %}

        {%- for mainCourse in mainCoursesL -%} 
        <text class="cls-7" transform="translate(501.97 {{ pos + (25*loop.index0)}})">- {{mainCourse}}</text>
        {% endfor %}

        {%- for other in othersL -%}
        <text class="cls-7" transform="translate(736.97 {{ pos + (25*loop.index0)}})">- {{other}}</text>
        {% endfor %}
    </g>
</svg>